<?xml version="1.0" encoding="utf-8"?>
<!-- Generator: Adobe Illustrator 24.0.2, SVG Export Plug-In . SVG Version: 6.00 Build 0)  -->
<svg version="1.1" id="Camada_1" xmlns="http://www.w3.org/2000/svg" xmlns:xlink="http://www.w3.org/1999/xlink" x="0px" y="0px"
	 viewBox="0 0 940.3 1080" style="enable-background:new 0 0 940.3 1080;" xml:space="preserve">
<style type="text/css">
	.st0{fill:#070707;}
</style>
<g>
	<path class="st0" d="M559,347.1c-20.1-16.7-49.5-25-88.1-25H366.2V515h104.7c38.6,0,68-8.3,88.1-25c20.1-16.7,30.1-40.3,30.2-71
		C589.2,387.7,579.1,363.8,559,347.1z"/>
	<polygon class="st0" points="760.8,953.7 809.9,953.7 785.4,894.3 	"/>
	<path class="st0" d="M766.5,108.1L640,0L470.1,107.8L309.1,0L179.7,108.9L0,0v1080h940.3V0L766.5,108.1z M237.7,217.4h240.4
		c49.2,0,91.9,8.2,128.1,24.6c36.2,16.4,64.1,39.7,83.7,69.8c19.6,30.2,29.3,65.9,29.4,107.1c0,40.7-9.8,76.3-29.4,106.7
		c-19.6,30.4-47.5,53.7-83.7,69.8c-36.2,16.1-79,24.2-128.1,24.2H366.2v153.1H237.7V217.4z M225.4,1014.2l-0.2-93.1l-45.6,76.7
		h-16.2L118,923.1v91.1H84.3V859.1H114l58.1,96.4l57.2-96.4h29.5l0.4,155.1H225.4z M435.1,945.9c0,22.7-6.2,40.3-18.5,52.5
		c-12.3,12.3-29.6,18.4-51.7,18.4c-22.2,0-39.4-6.1-51.7-18.4c-12.3-12.3-18.5-29.8-18.5-52.5v-86.9h35.9v85.5
		c0,27.8,11.5,41.7,34.6,41.7c11.2,0,19.8-3.4,25.7-10.1c5.9-6.7,8.9-17.2,8.9-31.6v-85.5h35.5V945.9z M584.2,1014.2H470.5V859.1
		h35.9v125.9h77.8V1014.2z M658,1014.2h-35.9V888.3h-49.6v-29.2h135.2v29.2H658V1014.2z M835,1014.2l-13.7-33.2h-72l-13.7,33.2
		h-36.8l69.1-155.1h35.5l69.4,155.1H835z"/>
</g>
</svg>
