<?xml version="1.0" encoding="utf-8"?>
<!-- Generator: Adobe Illustrator 24.0.2, SVG Export Plug-In . SVG Version: 6.00 Build 0)  -->
<svg version="1.1" id="Camada_1" xmlns="http://www.w3.org/2000/svg" xmlns:xlink="http://www.w3.org/1999/xlink" x="0px" y="0px"
	 viewBox="0 0 1080 1080" style="enable-background:new 0 0 1080 1080;" xml:space="preserve">
<style type="text/css">
	.st0{fill:#2C3E66;}
	.st1{fill:#F7F8F3;}
</style>
<g>
	<path class="st0" d="M491.2,1010.4c-5.2,0-10.4-0.9-15.5-2.7c-9.5-3.5-15.2-11.1-17.9-15.9c-18,0.2-33.1-5.6-44.9-16.9
		c-4-3.9-13.2-14.5-10.5-28.3c1.8-8.9-1.8-17.5-7.9-30.8c-1.7-3.7-3.5-7.6-5.1-11.7c-4.9-12.2-13.8-21.1-27.2-27.3
		c-4.5-2.1-8.6-4.2-12.6-6.4c-1.8-0.9-3.5-1.9-5.2-2.7c-9.9,4.4-19.9,8.9-29.7,13.4l-6.6,3c-8.9,4-17.2,4.4-24.9,1.1
		c-5.3-2.3-12.3-7.3-16.1-18.6l-0.6-1.8c-2.5-7.3-4.6-13.7-8.1-17.6c-3.2-3.5-5-7.3-5.9-11c-1.7-0.4-2.1-0.2-2.3-0.1
		c-22.5,9.3-37.4,3.3-46.7-5.2c-0.9-0.4-1.8-0.8-2.8-1.4c-0.2-0.1-0.5-0.3-0.8-0.4c-3-1.6-8.6-4.6-12.8-10.7
		c-4.6-6.7-8.9-13.5-13-20.2l-2.2-3.6c-2.9-4.4-4.5-9.6-4.5-14.8c-0.2-0.2-0.4-0.3-0.5-0.4c-0.6-0.5-1.2-1-1.8-1.5
		c-5-4.4-12-10.5-13-21.2c-0.9-10,3.9-17,7.9-21.8c1.9-19,10.4-36.3,26-52.6c4.6-4.8,8.9-11.7,12.6-17.9c2.8-4.6,10.2-16.6,27-18.8
		l0.8-0.1c1.9-0.2,4.4-0.5,5.5-0.9c6.6-6.7,15.5-9.7,24.5-8.3c9.5,1.4,17.5,7.6,22.1,16.8c1.6,3.3,3.2,6.7,4.8,10
		c0.2,0.4,0.4,0.8,0.6,1.3c0.7-1.2,1.3-2.7,1.9-4.4c2.1-6.3,2.4-13.1,0.9-19.6l-0.1-0.4c-0.4-1.9-1.1-4.8-1.5-6.2
		c-11.1-6.3-15.4-17.9-17.9-24.9l-0.3-0.8c-3.4-9.2-0.7-17.1,0.5-21c0.1-0.2,0.2-0.5,0.2-0.7c0.2-1,0.4-1.8,0.7-2.6
		c-0.9-4.2-1.9-8.5-3-12.9c-0.4-1.7-0.8-3.4-1.2-5.2c-8.8,0.1-17.6,0-26.4-0.6c-13.8-0.8-26.2-13.8-26.7-27.9
		c-0.4-13,0.4-29.9,10.7-45.1c3.5-5.1,9.8-11.1,17.8-14.2c-6.4-14.7-5.9-30.1,1.6-45.1c0.1-0.7,0.1-1.7,0.2-2.5
		c0.1-2,0.2-4.3,0.6-6.8c0.2-1.7,0.4-3.5,0.6-5.3c0.5-4.4,1-9.4,2.2-14.6c1.2-5.2,2.4-10.3,3.7-15.2c1.2-4.7,2.4-9.3,3.3-13.7
		c-3.1-3.3-6.3-6.6-9.7-10c-3.7-3.7-7.5-7.6-11.3-11.7c-14.4-15.7-15.9-29.7-5.1-48.4c1.9-3.3,3.8-6.7,5.7-10
		c2.8-4.8,5.6-9.8,8.5-14.7c-2.2-5.8-2.4-11.6-0.5-17.4c1.7-5.4,5-9.7,9.6-13c0.1-14.9,5.7-24.5,17.8-30.1
		c-8.6-1.6-15.6-6.6-19.6-14.1c-4.5-8.5-4.2-18.7,0.9-27.9c6.7-12.4,13.5-24.8,20.3-37.2l0.2-0.3c1.7-3.1,4-5.8,6.6-8.2
		c9.4-8.5,24.3-12.5,40.9-10.8c4.2,0.4,11.6,1.6,19.3,4.7c7.5-8.6,17.3-12.8,23.3-15.2c1.6-0.7,3.1-1.3,4.3-1.8
		c10.6-5,20.4-1.1,24.6,0.5c0.2,0.1,0.3,0.1,0.5,0.2c0.9,0.1,1.7,0.2,2.6,0.2l0.9,0.1l6.4,0.6c7.6,0.7,15.4,1.4,23,2
		c1.3,0.1,2.7,0.3,4,0.4c1.4,0.2,3.3,0.4,4.1,0.4c5.9-1,12.1-2.6,18.6-4.2c1.6-0.4,3.2-0.8,4.8-1.2c7.8-1.9,21.1-2.7,32.8,9.3
		c0.8-3.5,2-6.9,3.8-10c3.1-5.6,7.6-10.1,12.9-13c2.5-8,5.9-16.3,15.5-21.2c10.9-5.6,20.9-2.1,29.8,1c7.5,2.6,15.3,5.8,24.6,9.9
		c12.2,5.4,19,15.8,19.1,27.9c16.6,0.5,25.9,10.1,30.3,16.8c0.4,0.4,1,0.8,1.5,1.2c1.4,1.1,3,2.4,4.8,4c2.3,2.1,4.3,4.2,6.3,6.3
		c0.1,0.1,0.2,0.3,0.4,0.4c0.5,0.3,1,0.5,1.6,0.8c1.4-1.1,2.8-2.1,4.3-2.9l1.1-0.6c2.3-1.1,4.7-2.4,7.2-3.7
		c7.6-4,16.2-8.4,25.9-11.1c14.8-4.1,30.5-0.8,46.7,9.7c9.2,6,11.7,15.5,12.9,20l0.1,0.4c1.7,6.2,3.2,12.4,4.6,18.4
		c0.6,2.5,1.2,5,1.8,7.4c0.6,2.5,1.3,5,1.9,7.5c0.6,2.4,1.2,4.8,1.8,7.2c2.1-0.1,4.3-0.3,6.4-0.4c3.4-0.2,6.9-0.5,10.3-0.7l0.5-0.2
		c6.1-2.6,11.8-5.2,17.2-7.9c14.9-7.8,28.6-2.7,34.4-0.6c12.6,4.7,17.8,18.2,16.4,29.1c-0.9,6.8-1.8,13.7-2.7,20.4
		c-1.3,9.1-2.5,18.6-3.6,27.7c0.1,0.7,0.3,2.1,0.5,3.2c0.2,1.4,0.5,2.8,0.6,4.2c0.1,0.6,0.3,1.5,0.4,2.4c0.5,2.7,1.3,6.5,1.3,10.9
		c0.1,13.7-6.9,21.2-11,24.4c-2.5,2-6.8,4.5-12.8,5.5c0.2,3.8,1.6,8.1,4.6,13.3c7.8,13.3,13.6,27.1,19.3,40.5c0,0.1,0.1,0.1,0.1,0.2
		c2,0,4.1,0,6.1,0c8.5-0.1,16.6-0.1,24.5-0.7c1.1-0.3,3.4-1.5,5-2.3c1.2-0.6,2.3-1.1,3.4-1.6c10.4-4.8,18.8-3.3,23.9-1.2
		c5.1,2.1,12.1,6.8,16,17.4c5.4,14.4,11,28.7,15.7,40.8c7.8,19.9,2.2,36.4-15.7,46.8c16.5,16.8,24.2,39.1,22.5,65
		c-0.8,12-3.5,23.1-6.2,33.8c-0.4,1.6-0.8,3.1-1.2,4.7c-4.7,19.3-19,29.4-28.5,36.1c-2,1.4-3.8,2.7-5.4,4
		c-4.9,3.8-9.8,7.3-14.7,10.7c2,2.7,4.1,5.4,6.1,8c9.2,11.6,10.3,25.3,3,38.4c-12.7,23.1-33.6,33.4-52.4,40.5
		c-1.1,0.6-3.1,4.3-2.8,7.1c1.5,12.8,5.4,25.1,11.6,36.4c7.7,14.2,7.9,29.1,0.4,40.9c-6.9,10.9-19.6,17.6-33.8,18.2
		c-7.3,9.6-19.9,14.7-29.8,14.6c-9.5-0.1-18.1-3-24.8-8.3c-3.8,1.7-7.7,2.8-11.8,3.2c1.5,2.4,2.6,4.8,3.5,7.2
		c5.6,5.1,8.4,11.2,10,14.5c0.1,0.2,0.1,0.3,0.2,0.5c11.7,9.4,14.3,25.9,5.7,39.8c-4.2,6.7-8.8,13.9-14.7,22.6
		c-2.4,3.8-5.7,7-9.4,9.3c-1.5,6.4-4.2,12.5-8.1,17.8c-3.1,4.3-6.4,8.2-9.6,12.1c-2.6,3.2-5.1,6.1-7.3,9.1c-3,4-11.6,15.6-27.8,18.3
		c-0.6,0.3-1.2,0.7-1.8,1c-2.5,1.3-5,2.8-7.7,4.4c-6.4,3.7-13.7,8-21.9,11.1c-14.5,5.6-31,1-42.2-11.8c-3.1-3.3-5.5-7.3-7-11.5
		l-0.4-1.1l-0.3-1.2c-0.7-2.9-1.2-5.1-9.4-6.5c-2.6-0.3-5.2-1-7.7-2c-5.3,2.6-11.4,3.2-17.4,2.6c-4.2,5-8.7,8.9-12.6,12.4
		c-1.7,1.5-3.4,3-4.9,4.4c-5.2,5-10,11.3-15.1,18l-1.9,2.5C519.8,1003.5,505.7,1010.4,491.2,1010.4z M463.6,991.6
		C463.6,991.6,463.6,991.6,463.6,991.6C463.6,991.6,463.6,991.6,463.6,991.6z M455.3,986.5L455.3,986.5L455.3,986.5z M462.7,945.6
		c14.2,0,24,5,31.2,16l0.7-0.9c5.9-7.8,12.1-16,19.9-23.4c2.1-2.1,4.2-3.9,6.3-5.7c4.4-3.9,8.2-7.2,9.8-10.5
		c5.3-10.8,17.5-19,33.3-14.8c4.5-2.7,8.8-3.9,12.2-4.3c9.9-1.2,17.8,2.7,22.7,6c24,4.7,35.4,18.5,40.8,30.4
		c2.4-1.3,4.9-2.8,7.5-4.2c2.9-1.7,5.9-3.4,9.1-5.1c0.3-0.2,0.6-0.3,0.9-0.5c2.6-1.5,7.1-4.1,13.1-5.1c0.1-0.2,0.3-0.4,0.4-0.6
		c3-4,6.1-7.7,9-11.2c2.8-3.4,5.5-6.5,7.7-9.6c0.2-0.3,0.4-0.6,0.4-0.9l0.1-0.5c0.4-4,1.1-9.9,4.5-16c2.1-3.7,6.5-9.4,14.5-12.7
		c1.8-2.7,3.5-5.3,5.1-7.8c-1.1-1.8-1.9-3.5-2.5-4.9c-6.2-3.7-10.6-10.2-11.7-17.9c-5.2-3.5-9-8.6-11.6-15.5
		c-6-2.5-9.8-6.5-11.7-8.5c-0.1-0.2-0.3-0.3-0.4-0.5l-17.1-15l28.6-32.5l14,7.3c7-5.2,17.3-8.8,31.8-5.2c0.1-0.1,0.2-0.2,0.2-0.3
		l0.9-1c2.5-2.9,5.2-5.7,8.1-8.2l30.8-28.1l6.1,34.2c4.3-3.1,9.4-5,15.2-5.7c-6.5-14-10.7-28.9-12.5-44.4
		c-2.7-23.7,11.2-47.5,32.3-55.5c12.1-4.6,19.4-8.7,24.3-14c-2.4-3.1-4.6-6.3-6.9-9.3c-2.1-2.9-4.2-5.7-6.3-8.6
		c-4.7-6.3-6.7-13.8-5.5-21c0.9-5.2,3.7-12.6,12.5-18.6c2.6-1.8,5.2-3.5,7.8-5.3c7.1-4.7,13.8-9.2,19.9-14c2.5-2,4.9-3.7,7.2-5.3
		c6-4.3,9.8-7.1,10.4-9.5c0.4-1.6,0.8-3.3,1.2-4.9c2.3-9.1,4.4-17.8,4.9-25.7c1-14.5-3.1-25-12.9-32.9l-0.5-0.5
		c-5.2-4.5-9.9-9.5-14.2-14.9c-7.5-9.3-7.1-18.5-6.2-23.2c1.6-8.1,6.8-14.9,14.6-19.2c2.4-1.3,4.9-2.8,7.5-4.4
		c1.8-1.1,3.6-2.2,5.4-3.3c-2.4-6-4.9-12.5-7.4-19.2c-2.3,0.6-4.8,1.1-7.4,1.3c-9.7,0.8-19.1,0.8-28.2,0.9c-4.4,0-8.5,0.1-12.7,0.2
		c-8.9,0.2-25.1-2.5-33.8-22.8c-0.8-1.9-1.6-3.7-2.4-5.6c-5.3-12.6-10.3-24.4-16.6-35.1c-11.5-19.7-14-39.2-7.4-59.6
		c1.9-5.9,4.7-14.8,13.8-20.3c1.3-0.8,2.6-1.4,3.9-1.9c-0.3-3-0.5-6.4,0-10.1c0.8-7.3,1.8-14.6,2.8-21.8c-0.1,0-0.2,0.1-0.3,0.1
		l-4.8,2.1l-1.4,0.4c-3.3,1-6.8,1.5-10.3,1.5c-3.3,0.2-6.5,0.4-9.8,0.7c-6,0.4-12,0.8-18,1.2c-17,1.3-30.6-9.2-33.9-26
		c-1.1-5.3-2.4-10.7-3.9-16.5c-0.7-2.6-1.4-5.3-2-7.9c-0.6-2.5-1.2-5.1-1.9-7.6c-1.2-4.9-2.3-9.5-3.5-14.1c-2.2-0.9-3.5-1-3.9-0.9
		c-5.1,1.4-10.8,4.4-16.9,7.6c-1.2,0.6-2.3,1.2-3.5,1.8c-6.3,9.8-15.7,13.8-21.1,16.1c-1.6,0.7-3.1,1.3-4,1.8l-42.4,25.1l7-42.3
		c-3-2.4-4.9-5-6-6.5c-1.2-1.3-2.3-2.4-3.4-3.4c-0.4-0.4-1.2-1-2-1.6c-2.3-1.8-5.6-4.4-8.6-8c-5.7,0.3-10.7,0.5-15.5,0.6
		c-3.6,0.1-14.5,0.3-22.8-8.8c-5.1-5.5-7.4-12.9-6.7-20.7c0.2-2.7,0.6-5.3,1.1-7.9c-0.1-0.1-0.3-0.1-0.4-0.2c-2.2,4-5.3,7.4-9.2,10
		c2.1,10.7,1.2,20.7,0.4,29c-0.2,2.3-0.4,4.5-0.5,6.6c-0.6,10-6.6,18.8-15.9,23.5c-9.6,4.9-20.9,4.6-29.5-0.9
		c-1.3-0.9-2.9-1.7-4.8-2.9c-1.1-0.6-2.2-1.3-3.4-2l-16.7-9.8l3.2-8.3c-3.5-3.5-6.6-7.4-9.4-11.6c-6.2,1.5-12.5,3.1-19.2,4.2
		c-6.4,1.1-12.2,0.4-16.5-0.1c-0.9-0.1-1.8-0.2-2.7-0.3c-7.9-0.6-15.8-1.4-23.5-2.1l-5.9-0.5c-3-0.2-6.1-0.5-9-1l-0.9-0.2
		c-1-0.2-1.9-0.5-2.8-0.7c-1.3,0.5-2.7,1.2-3.7,1.7c-1.9,11.7-11.1,20.1-18.7,23.7c-12.8,6.2-26-0.6-33.9-10.4
		c-2.6-1.4-8.4-2.1-12.1-1.8c-3.1,5.6-6.1,11.2-9.2,16.8c10.1,8.7,13.6,21,15.2,26.4c0.1,0.2,0.1,0.4,0.2,0.6
		c1.3,3.5,4.3,11.8,0.7,21.1l-0.4,0.9c-2.5,5.9-5.5,11.6-8.9,17c-2.2,3.6-5.2,6.4-8.9,8.4c0.5,8.1-1.9,15.4-6.6,21
		c0.2,5.1-1,11-4.8,17.4c-4.2,6.9-8.3,14.2-12.3,21.2c-1.4,2.4-2.7,4.8-4.1,7.2c2.4,2.5,4.9,5.1,7.5,7.7c4.8,4.9,9.8,9.9,14.6,15.4
		l0.3,0.3c6.4,7.6,9.6,17.6,8.7,27.5l-0.1,1.1l-0.2,1.1c-1.4,7.6-3.3,15-5.1,22c-1.2,4.8-2.4,9.3-3.4,13.7c-0.6,2.8-1,6.1-1.4,9.7
		c-0.2,2.1-0.5,4.3-0.8,6.4c-0.1,0.7-0.2,1.9-0.2,3.1c-0.3,5-0.7,12.6-4.7,20.1c-1.8,3.4-2.2,5,0.7,9.5l0.6,0.9l0.5,1
		c3.4,6.3,4.2,13.5,2.3,20.4l-0.1,0.2c-1.1,3.8-2.6,8.8-4.5,14c-4.8,12.5-13.1,18.3-20.6,21c4.2,0,8.3-0.2,12.5-0.4
		c16.8-1.1,28.8,8.1,32.2,24.5c1.1,5.3,2.4,10.6,3.7,16.2c1.4,5.9,2.9,12,4.2,18.2c1.5,7.4-0.3,13.7-1.3,17
		c-0.1,0.3-0.2,0.6-0.3,0.9c0,0.2-0.1,0.3-0.1,0.5c13.9,10,17,23.8,19.1,33.3c3.4,14.8,2.7,30.2-2.1,44.6
		c-7.7,22.8-24.3,37.6-46.9,41.9c-10.3,1.9-24.7-2.4-31.1-14.2c-2.4-4.5-4.7-9-6.8-13.5c-2.9,0.8-5.7,1.3-8.1,1.7
		c-4.5,7.3-10,15.8-17.3,23.4c-9,9.5-13.1,17.5-13.6,26.9l-0.1,1.2c-0.3,3-1,5.9-2,8.7c4.9,5.4,10,13.3,10.2,24
		c3,4.8,5.9,9.4,8.8,13.9c2.4,0.8,5.8,2.3,9,5.2c0.3-0.1,0.6-0.2,1-0.4c10.3-4.3,21.2-4.7,33.3-1.4c1.4,0.4,2.8,0.8,4.2,1.2
		c1.7,0.5,3.3,1,4.3,1.2c14.2,2.7,23.4,13.9,23.3,28.3c2.8,4.1,5,8.2,6.8,12.3c9.1-4.1,18.3-8.3,27.5-12.3l1.4-0.5
		c8-2.8,16.6-2.6,24.4,0.7l0.6,0.3c4.5,2.1,8.7,4.3,12.7,6.4c3.6,1.9,7.1,3.7,10.4,5.3c24.2,11.1,41.2,28.6,50.6,51.8
		c1.3,3.2,2.8,6.4,4.3,9.9c5.9,13.1,13.1,28.8,12.4,47.7c2.3,0.9,5.5,1.5,10.3,1.3C460.5,945.7,461.6,945.6,462.7,945.6z
		 M553.5,915.8C553.5,915.8,553.5,915.8,553.5,915.8C553.5,915.8,553.5,915.8,553.5,915.8z M698.5,842L698.5,842L698.5,842z
		 M743.3,835.4c0,0,0,0.1,0,0.1C743.3,835.5,743.3,835.5,743.3,835.4z M765.3,783.4C765.3,783.4,765.3,783.4,765.3,783.4
		C765.3,783.4,765.3,783.4,765.3,783.4z M732.7,771.8C732.7,771.8,732.7,771.8,732.7,771.8C732.7,771.8,732.7,771.8,732.7,771.8z
		 M285.8,634.1C285.8,634.1,285.8,634.1,285.8,634.1C285.8,634.1,285.8,634.1,285.8,634.1z M310.2,592.2L310.2,592.2
		C310.2,592.2,310.2,592.2,310.2,592.2z M882.6,424.1L882.6,424.1z M325.7,148.7C325.7,148.7,325.7,148.7,325.7,148.7
		C325.7,148.7,325.7,148.7,325.7,148.7z M452.1,148.5C452.1,148.5,452.1,148.5,452.1,148.5C452.1,148.5,452.1,148.5,452.1,148.5z
		 M622,129.3C622,129.3,622,129.3,622,129.3C622,129.3,622,129.3,622,129.3z M429.2,112.9C429.2,112.9,429.2,112.9,429.2,112.9
		C429.2,112.9,429.2,112.9,429.2,112.9z"/>
	<path class="st0" d="M883.4,475.5c-4.1-3.6-7.9-7.6-11.3-11.9c-2.2-2.7-2.7-5.5,1.4-7.7c6.2-3.4,12.1-7.4,18.4-10.7
		c9.3-4.8,11.3-9.6,7.4-19.4c-5.4-13.7-10.7-27.4-15.8-41.1c-1.8-4.7-4.4-5.4-8.8-3.4c-5.1,2.4-10.4,5.5-15.9,5.9
		c-13.1,1-26.4,0.7-39.6,1c-6.4,0.2-9.6-3-12.1-8.8c-6.2-14.7-12.2-29.6-20.3-43.3c-7.8-13.4-10.1-26.3-5.4-40.9
		c2.8-8.6,3.4-9.4,12.3-7.1c6,1.6,9.1-0.5,9-6.6c0-3.5-1.1-7-1.6-10.6c-0.5-4.1-1.6-8.4-1.2-12.5c1.9-16.3,4.4-32.5,6.4-48.8
		c0.2-1.5-0.6-4.2-1.6-4.6c-5.1-1.9-10.2-3.5-15.8-0.6c-7.2,3.7-14.7,6.9-22.1,10.2c-1.4,0.4-2.9,0.6-4.3,0.5
		c-9.6,0.7-19.2,1.2-28.8,2c-5.5,0.4-8.7-2.5-9.7-7.5c-1.7-8.6-4.1-17-6.2-25.5c-2.1-8.5-4.1-17-6.3-25.4c-0.7-2.5-1.5-5.9-3.3-7.1
		c-8.5-5.5-18.3-9.5-28-6.8c-10.2,2.8-19.5,8.6-29.1,13.3c-1.5,0.8-2.7,2.1-3.3,3.7c-3.4,7.8-11.3,8.4-18.6,12.7
		c1.4-8.4-1.5-13-8.6-15c-1.5-0.4-2.4-2.7-3.7-4c-1.7-1.8-3.4-3.6-5.2-5.2c-3.2-3-7.3-5.3-9.5-8.9c-3.5-5.7-8.2-7.4-14.3-7
		c-6.1,0.3-12.2,0.6-18.3,0.7c-3,0.1-6.6-0.1-6.2-4.3c0.4-4.8,1.4-9.4,3.1-13.9c2.3-5.8,1.6-9.7-4.2-12.3
		c-7.5-3.3-15.1-6.5-22.8-9.2c-12.8-4.5-12.9-4.3-16.6,8.2c-0.3,0.6-0.4,1.2-0.6,1.8c-0.4,4.6-2.5,6.8-7.3,7.8
		c-5.9,1.3-9.3,9.8-7,16.1c4.3,11.7,1.8,23.6,1.1,35.5c-0.3,4.2-6.8,6.8-10.1,4.6c-2.6-1.6-5.3-3.1-8.9-5.2
		c1.9-5.1-1.1-7.8-5.1-11.1c-4.9-4.1-9.1-9.1-12.2-14.6c-4.2-7.3-8.2-10.2-14.8-8.6c-8.4,2.1-16.9,4.4-25.4,5.8
		c-4.4,0.7-9-0.2-13.6-0.6c-9.9-0.8-19.7-1.7-29.6-2.6c-2.2-0.1-4.5-0.4-6.7-0.8c-3.4-0.7-7.5-3.5-9.9-2.4
		c-10.1,4.8-22.7,7.2-24.2,21.9c-0.3,2.6-3.5,5.7-6.1,7c-1.1,0.6-4.8-2.5-6.3-4.6c-7.8-10.6-35.7-13.6-45.5-4.7
		c-0.8,0.7-1.5,1.5-2,2.4c-6.8,12.3-13.5,24.7-20.3,37.1c-2.3,4.3-1.4,8.1,3.5,8.5c12,1.2,15.7,9.7,18.5,19.4
		c0.7,2.4,2.2,5.3,1.5,7.2c-2,4.8-4.5,9.4-7.3,13.8c-0.4,0.7-1.8,0.9-2.8,1.1c-9,2.4-10,3.9-9.6,13.1c0.1,2.5-0.1,5.1,0.1,7.6
		c0.4,4.1-1.4,6.1-5.3,7.2c-6.5,1.8-7.3,3.9-3.1,9.2c2.6,3.3,2.2,5.7,0.2,9c-6.3,10.5-12.2,21.1-18.3,31.7
		c-5.6,9.8-5.6,12.9,2.1,21.3c8,8.7,16.7,16.7,24.4,25.5c2.5,3,3.7,6.8,3.4,10.7c-2.2,11.8-5.7,23.3-8.3,35c-1.3,5.9-1.7,12-2.5,18
		c-0.7,5.2-0.1,11.1-2.4,15.4c-6.3,11.8-5.2,22.4,1.9,33.1c0.6,1,0.7,2.3,0.4,3.4c-1.1,4-2.4,8.1-3.9,12c-1.8,4.8-4.6,7.8-10.6,8.3
		c-3.3,0.2-7.4,3.2-9.3,6.1c-6.4,9.5-7.2,20.6-6.8,31.6c0.1,2,3.2,5.6,5,5.7c12.1,0.7,24.3,0.8,36.4,0.1c5.7-0.4,7.2,1.1,8.3,6.2
		c2.4,11.5,5.5,22.9,7.9,34.4c0.5,2.6-0.9,5.7-1.5,8.6c-0.6,2.9-2.5,6.3-1.6,8.7c1.8,5,4,11.4,8,13.7c9,5,10.6,12.1,12.7,21.3
		c2.5,10.7,2,21.8-1.5,32.2c-4.7,14-14.3,23.7-29.4,26.6c-2,0.4-5.7-0.9-6.6-2.5c-5-9.2-9.2-18.8-13.9-28.1
		c-2.3-4.6-6.4-5.8-9.7-2.3c-5.5,5.8-12.6,6.5-19.6,7.4c-5.3,0.7-7.8,3.8-10.4,8c-4.7,7.6-9.5,15.3-15.6,21.7
		c-11.3,11.9-19.1,24.9-19.9,41.6c-0.3,2.9-1.5,5.6-3.3,7.8c-5.8,7-6.1,6.9,0.9,13c5.7,5,12.2,9.4,10.2,18.6c-0.1,1.1,0.2,2.1,0.8,3
		c4.9,7.8,9.7,15.6,14.9,23.2c1.3,1.9,3.9,3,6.1,4.2c1.4,0.8,3.6,0.8,4.5,1.9c7.3,8.8,16.1,7,24.8,3.4c6.3-2.6,12.3-2.2,18.5-0.5
		c3.4,0.9,6.8,2.2,10.3,2.8c3.7,0.7,4.7,2.6,4.5,6.2c-0.2,2.8-0.7,6.7,0.9,8.4c7.1,7.9,10.1,17.7,13.4,27.4c1.8,5.3,4.5,6.3,9.7,3.9
		c14.1-6.5,28.3-13,42.6-19.2c2.5-0.9,5.2-0.8,7.6,0.2c7.8,3.6,15.3,8.1,23.1,11.7c18,8.3,31.4,21.2,38.9,39.6
		c7.2,17.8,18.3,34.7,14.2,55.5c-0.4,2.1,2,5.5,3.9,7.3c8.7,8.5,19.6,11,31.4,10.4c10-0.5,12.8,1.5,16.8,10.5
		c1.2,2.8,3.8,5.9,6.4,6.9c9.9,3.7,20.9-0.6,27.3-9c6.1-8,12.1-16.3,19.4-23.2c7.4-7.1,16-12.9,20.7-22.5c1.7-3.5,4.5-3.8,8.5-2.2
		c3.8,1.5,10.7,2.6,12.1,0.8c5.8-7.6,10.8-5.5,16.7-0.9c1.1,0.7,2.3,1.1,3.6,1.2c14.4,2.2,25.1,8.8,28.7,23.9
		c0.5,1.4,1.3,2.7,2.3,3.7c4.5,5.3,11,8.1,16.9,5.8c9.4-3.6,18-9.5,27-14.3c2.3-1.3,4.8-3,7.3-3.2c6.8-0.5,10.9-4.4,14.8-9.5
		c5.4-7.2,11.6-13.8,16.9-21.1c2.5-3.3,4-7.2,4.6-11.3c0.7-5.8,0.7-11,8.3-11.6c1.6-0.5,3-1.5,3.9-3c4.9-7.3,9.8-14.7,14.5-22.2
		c2.2-3.6,2.5-7.9-1.3-10.2c-7-4.4-5.7-15.4-14.8-17.7c-0.3-0.1-0.6-1.1-0.7-1.7c-0.7-6.8-4.1-11.7-9.8-15.4
		c-1.7-1.1-2.8-3.7-3.5-5.8c-1.6-5.8-6.2-10.3-12-11.9c-2.3-0.7-3.9-3.2-5.9-5c0.5-0.6,1-1.1,1.5-1.7c2,1.1,4,2.2,6.1,3.2
		c4.7,2.3,9.8,2,12.6-2.2c4.6-6.7,10-7,16.9-5.1c9.7,2.7,17.2-1,23.2-8.7c2-2.3,4.1-4.4,6.3-6.4c0.6,3.5,1.4,6.9,2.5,10.3
		c2.7,7.3,9.2,10.5,15.9,10.5c4.2,0,10.6-3.3,12.1-6.8c3-6.8,6.1-8.2,13.5-7.8c12.9,0.8,26.6-7.8,17.2-25
		c-7.6-13.9-12.4-29.1-14.2-44.8c-1.4-12.5,5.8-26.9,17.5-31.3c16.3-6.1,31.3-13.7,40.3-30c2.9-5.2,2.5-8.6-0.9-13
		c-6.2-7.9-12-16.1-18.1-24.2c-2.2-3-1.2-4.9,1.5-6.7c9.7-6.6,19.7-12.9,29-20.2c9.9-7.8,22.4-13.7,25.7-27.5
		c2.8-11.4,6-22.9,6.8-34.5C906,507.3,900.1,489.1,883.4,475.5z"/>
	<path class="st1" d="M491.2,995.9c-3.5,0-7-0.6-10.4-1.8c-5.5-2-9.4-7.2-11.2-11.4c-2.6-5.8-2.6-5.8-8.7-5.5
		c-15.7,0.8-28.1-3.4-37.7-12.7c-2.3-2.3-7.6-8.3-6.3-15c2.8-14-2.9-26.4-8.9-39.6c-1.6-3.6-3.3-7.3-4.9-11.1
		c-6.4-15.8-17.7-27.3-34.6-35.1c-4.1-1.9-8.1-4-11.9-6c-3.8-2-7.4-3.9-11-5.6c-0.4-0.1-0.8-0.2-1.2-0.1
		c-11.9,5.1-23.9,10.6-35.5,16l-6.5,3c-1.8,0.8-7.5,3.4-13.1,1c-5.6-2.4-7.5-8-8.1-9.8l-0.6-1.8c-2.9-8.5-5.5-16.5-11.1-22.7
		c-3.4-3.8-3.4-8.8-3.2-12.5c-1.8-0.4-3.5-1-5.2-1.5c-1.1-0.3-2.2-0.7-3.3-1c-5.4-1.5-9.2-1.4-13,0.1c-5.9,2.4-21.1,8.7-33.2-4.4
		c-0.9-0.3-2.2-0.7-3.5-1.4c-0.4-0.2-0.8-0.4-1.2-0.6c-2.3-1.2-5.4-2.9-7.6-6.1c-4.4-6.5-8.6-13.1-12.6-19.6l-2.3-3.7
		c-1.6-2.4-2.4-5.3-2.2-8.3l0-0.6l0.1-0.6c0.6-3-0.2-4.2-5.8-9.1c-0.6-0.5-1.1-1-1.7-1.4c-10.2-8.9-10.7-14.2-2.2-24.3l0.4-0.4
		c0.8-0.9,1.3-2,1.4-3.1c0.9-17,8-31.9,22.2-46.7c5.7-5.9,10.4-13.6,14.5-20.3c2.3-3.7,6.6-10.7,16.5-12l0.8-0.1
		c6.7-0.8,10.6-1.5,13.8-4.7c3.4-3.5,7.8-5.2,12.2-4.5c4.7,0.7,8.8,3.9,11.2,8.9c1.6,3.3,3.2,6.6,4.8,9.8c2.5,5.3,5.1,10.7,7.8,15.9
		c10.7-2.4,17.8-9.2,21.6-20.7c3-8.9,3.4-18.4,1.3-27.6c-2-9.1-3-12.8-8.5-15.9c-6.5-3.6-9.3-11.2-11.5-17.3l-0.3-0.8
		c-1.6-4.4-0.2-8.6,0.7-11.4c0.2-0.7,0.5-1.5,0.6-2c0.3-1.2,0.6-2.3,0.9-3.3c0.2-0.7,0.5-1.7,0.6-2.2c-1.1-5.6-2.5-11.3-3.8-16.8
		c-1.3-5.4-2.7-11.1-3.8-16.7c-12.4,0.7-24.8,0.6-37.1-0.1c-6.6-0.3-12.8-8-12.9-13.8c-0.4-11.5,0.3-24.8,8.2-36.5
		c2.9-4.4,9.1-9.3,15.7-9.8c1.7-0.1,2.3-0.2,3.3-2.9c1.3-3.3,2.3-6.7,3.2-9.6c-7.9-13-8.3-26.4-1.1-39.9c0.7-1.3,0.9-4.3,1-6.9
		c0.1-1.8,0.2-3.7,0.5-5.6c0.3-1.9,0.5-3.7,0.7-5.6c0.5-4.2,1-8.6,1.9-13.1c1.1-5,2.4-9.9,3.6-14.7c1.7-6.7,3.3-13,4.6-19.5
		c0-1.5-0.5-3-1.4-4.1c-4.2-4.8-8.6-9.2-13.3-14c-3.6-3.6-7.3-7.4-10.9-11.3c-10.1-11-10.9-18-3.2-31.2c1.9-3.4,3.9-6.7,5.8-10.1
		c4.1-7.1,8.3-14.5,12.6-21.7c-1.8-2.3-5.3-7.4-3.4-13.2c1.8-5.6,7.3-7.7,10.4-8.6c-0.1-1.4,0-2.6,0-3.8c0-0.9,0-1.8,0-2.8
		c-0.6-12.9,3-18.1,15.2-21.4c1.7-2.8,3.2-5.7,4.5-8.6c-0.1-0.2-0.2-0.5-0.3-0.7c-0.3-0.8-0.6-1.7-0.9-2.6
		c-2.8-9.8-5.2-12.7-11.2-13.3c-6.7-0.7-9.7-4.5-10.8-6.8c-2.2-4.2-1.9-9.2,0.8-14.2c6.7-12.4,13.5-24.8,20.3-37.1
		c1-1.8,2.3-3.4,3.8-4.7c9-8.2,23.7-7.7,29.7-7.1c11.1,1.1,20.6,5,26.2,10.7c3.3-14,14.8-18.7,23.4-22.3c1.7-0.7,3.4-1.4,4.9-2.1
		c4.9-2.3,9.7-0.4,12.9,0.9c0.8,0.3,1.8,0.7,2.3,0.8c1.8,0.3,3.6,0.5,5.4,0.6l0.3,0l6.4,0.6c7.6,0.7,15.5,1.4,23.2,2
		c1.2,0.1,2.4,0.2,3.6,0.4c3,0.3,5.7,0.6,7.9,0.3c6.6-1.1,13.1-2.7,20-4.5c1.6-0.4,3.2-0.8,4.8-1.2c14.8-3.7,21.6,8.1,24.2,12.6
		c2.7,4.7,6.2,8.9,10.3,12.3c2.8,2.3,7.9,6.5,8.7,13c0.6,0.4,1.3,0.7,1.9,1.1c0.1-1.3,0.2-2.7,0.4-4c0.8-8.7,1.5-17-1.2-24.5
		c-2.1-5.8-1.5-12.6,1.6-18.3c2.7-4.8,6.8-8,11.6-9c0.3-0.1,0.5-0.1,0.7-0.2c0,0,0,0,0-0.1l0.2-1.1c0.2-1,0.5-1.9,0.9-2.9
		c2.2-7.5,3.8-12.5,9-15.2c5.4-2.7,10.5-0.9,18.4,1.8c7.1,2.5,14.6,5.5,23.5,9.4c4.6,2,14.5,8.3,8.7,23c-0.8,2.2-1.4,4.5-1.9,6.7
		c4.5-0.1,9.3-0.3,14.9-0.6c9.9-0.6,17.1,3.1,22,11c0.7,1.1,2.5,2.5,4.2,3.9c1.3,1,2.6,2,3.9,3.2c2,1.8,3.8,3.7,5.6,5.6
		c0.8,0.8,1.4,1.6,1.8,2.3c4,1.5,8.8,4.4,11.3,9.9c2.1-1.1,3.2-2,3.8-3.5c1.4-3.2,3.9-6,7-7.7l0.4-0.2c2.5-1.2,4.9-2.5,7.5-3.8
		c7.3-3.8,14.8-7.7,23.1-10c10.6-2.9,22.3-0.3,34.8,7.9c4.5,2.9,5.9,8.1,6.8,11.6l0.1,0.4c1.6,6,3.1,12.2,4.5,18.1
		c0.6,2.5,1.2,5,1.8,7.5c0.6,2.5,1.3,5.1,1.9,7.6c1.5,5.9,3.1,12,4.3,18.2c0.1,0.3,0.1,0.6,0.2,0.7c0.1,0,0.3,0,0.6,0
		c6.1-0.5,12.2-0.9,18.2-1.2c3.5-0.2,7.1-0.5,10.6-0.7l0.5,0l0.5,0c0.4,0,0.8,0,1.2-0.1l2.9-1.3c6.3-2.8,12.3-5.4,18.1-8.4
		c9.2-4.8,17.6-1.7,22.6,0.2c5.8,2.1,7.6,9.2,7,13.6c-0.9,6.8-1.8,13.6-2.7,20.2c-1.3,9.3-2.6,19-3.7,28.5c-0.2,1.8,0.2,4.2,0.6,6.8
		c0.2,1.2,0.4,2.4,0.6,3.6c0.1,1,0.4,2.2,0.6,3.4c0.5,2.4,1,5.2,1,8.2c0,7.1-2.9,10.9-5.4,12.8c-3.7,2.9-8.5,3.5-14.2,2
		c-0.6-0.2-1.1-0.3-1.5-0.4c-0.2,0.7-0.5,1.4-0.6,1.9c-3.8,11.7-2.3,22.2,4.6,34.1c7.3,12.5,12.9,25.8,18.4,38.8
		c0.8,1.8,1.6,3.7,2.3,5.5c1.6,3.7,2.3,3.7,4.1,3.7c4.4-0.1,8.9-0.1,13.2-0.2c8.6-0.1,17.4-0.1,26-0.8c2.8-0.2,6.4-2,9.8-3.6
		c1.1-0.5,2.1-1,3.2-1.5c1.7-0.8,6.8-3.2,12.3-0.9c3.6,1.5,6.2,4.5,7.9,9c5.4,14.5,11,28.9,15.8,41c5.4,13.7,1.7,23.2-11.4,30
		c-3.1,1.6-6.2,3.5-9.4,5.4c-1.7,1-3.5,2.1-5.3,3.1c2.4,2.8,5,5.4,7.7,7.8c17.7,14.5,25.9,34.4,24.3,59.2
		c-0.7,10.7-3.3,21.2-5.8,31.2c-0.4,1.6-0.8,3.2-1.2,4.7c-3.4,14-13.7,21.3-22.7,27.7c-2.1,1.5-4.1,2.9-6,4.4
		c-7.1,5.6-14.6,10.6-21.9,15.4c-1.5,1-3.1,2.1-4.6,3.1c1.4,1.9,2.7,3.7,4.1,5.5c3.7,5,7.5,10.2,11.4,15.1
		c5.6,7.1,6.2,14.2,1.7,22.3c-10.4,18.9-27.7,27.4-44.7,33.9c-7.6,2.9-13.2,13.2-12.1,22.4c1.7,14.7,6.2,28.7,13.3,41.7
		c7,12.9,3.5,21.8,0.9,26c-4.9,7.7-14.9,12.1-26,11.5c-3-0.2-3.8,0.1-3.8,0.1h0c0,0-0.5,0.5-1.5,2.7c-3.2,7.1-12.8,11.8-19.8,11.8
		c0,0-0.1,0-0.1,0c-9.8-0.1-18-4.9-22.3-12.8c-9.8,9.1-20.2,8.9-27.8,6.8c-5.5-1.5-6.1-0.6-7.6,1.7c-1.1,1.7-2.5,3-4,4.2
		c1.2,1.9,2.1,4,2.7,6.2c0.3,0.9,0.5,1.4,0.7,1.7c6.6,4.6,10.8,10.5,12.4,17.7c5.3,3.2,7.6,8.3,9.3,12c0.9,2,1.9,4.1,2.8,4.7
		c7.3,4.6,8.9,13.8,3.9,21.8c-4.1,6.6-8.7,13.7-14.5,22.3c-2,3.2-5,5.5-8.7,6.5l-0.8,0.2l-0.8,0.1c0,0-0.1,0-0.1,0
		c-0.2,0.9-0.3,2.1-0.4,3.1l-0.1,1.3c-0.8,5.5-2.9,10.7-6.2,15.2c-2.9,4-6,7.7-9.1,11.3c-2.8,3.3-5.4,6.5-7.9,9.7
		c-4.1,5.5-10.2,12-20.7,12.9c-0.5,0.2-1.6,0.8-2.3,1.2c-0.6,0.3-1.2,0.7-1.8,1c-2.7,1.5-5.3,3-8.1,4.6c-6.2,3.6-12.7,7.4-19.8,10.1
		c-8.8,3.4-19,0.2-26.2-8c-1.8-1.9-3.2-4.2-4.1-6.6l-0.2-0.8c-2.5-10.2-8.9-15.5-21.6-17.5c-2.5-0.3-4.9-1.1-7.1-2.5l-0.7-0.5
		c-1.8-1.4-2.7-2-3.2-2.2c-0.3,0.2-0.8,0.7-1.5,1.6c-5.4,7-17.2,3.6-20.9,2.3c-4.3,7.6-10.5,13-15.9,17.8c-1.9,1.6-3.6,3.2-5.3,4.8
		c-6,5.8-11.2,12.6-16.6,19.7l-1.9,2.5C511.1,991,501.2,995.9,491.2,995.9z M486.8,978.2c5.9,2.1,13.1-0.5,17.5-6.3l1.9-2.5
		c5.6-7.4,11.4-15,18.4-21.7c1.9-1.9,3.9-3.6,5.8-5.3c5.3-4.7,10.3-9.1,13.2-14.9c1.3-2.7,6.7-11.2,19.1-6.3
		c1.4,0.5,3.1,0.9,4.4,1.1c3.2-3.4,6.8-5.3,10.7-5.8c6.1-0.7,11.2,2.3,15.1,5.3l0.3,0c19.3,3,31.2,13,35.5,29.6
		c0.1,0.1,0.2,0.3,0.3,0.4l0.5,0.5c2,2.4,5.1,4.3,7.5,3.4c5.8-2.3,11.4-5.5,17.4-9c2.8-1.6,5.7-3.3,8.6-4.9c0.4-0.2,0.9-0.5,1.3-0.7
		c2.3-1.3,5.4-3.1,9.3-3.5c2.8-0.2,5-1.3,8.6-6.2c2.7-3.7,5.7-7.2,8.5-10.5c3-3.6,5.8-6.9,8.4-10.4c1.6-2.2,2.7-4.8,3.1-7.4l0.1-0.9
		c0.5-4.8,1.7-15.6,13.7-17.8c5.5-8.2,10-15,13.9-21.2c-4.1-3.2-6.1-7.5-7.6-10.8c-1.8-3.9-2.3-4.5-3.3-4.8c-3.9-1-6.5-4.4-7-9.1
		c-0.4-3.9-2.2-6.6-6-9.2c-3-2-5.3-5.3-6.8-10.2l-0.1-0.3c-0.8-2.9-3.2-5.2-6.1-6l-0.3-0.1c-3.6-1.1-6-3.6-7.7-5.4
		c-0.5-0.5-0.9-0.9-1.2-1.2l-6.4-5.6l11.5-13l7.8,4.1c1.3,0.7,2.6,1.4,4,2.1c0.9,0.5,1.6,0.5,1.9,0.6c9-13.1,21.9-9.6,26.1-8.4
		c4,1.1,8.8,1.3,14.3-5.7l0.3-0.4c2.2-2.5,4.5-4.9,6.9-7.1l11.3-10.3l2.7,15c0.5,3,1.3,6.1,2.1,9.1c1.6,3.9,5.2,4.8,7.9,4.8
		c1.1,0,3.7-1.3,4.5-2.2c4.3-9.5,10.6-13.1,21.6-12.5c4.7,0.3,9.2-1.3,10.8-3.7c1.6-2.5-0.2-6.6-1.4-8.9
		c-8.1-14.9-13.3-31-15.2-47.9c-1.9-17,8.1-34.6,22.9-40.2c16.3-6.1,28.6-12.9,35.9-26.2c0.8-1.4,0.9-2,0.9-2.1l0,0
		c0,0-0.2-0.5-1-1.6c-4.1-5.2-8-10.5-11.8-15.6c-2.1-2.9-4.3-5.8-6.4-8.7c-3-4-3.1-7.6-2.8-9.9c0.9-5.2,4.9-8,6.3-8.9
		c2.6-1.7,5.1-3.5,7.7-5.2c7.3-4.9,14.2-9.5,20.8-14.6c2.2-1.7,4.5-3.3,6.7-4.9c7.6-5.4,14.2-10,16.1-17.9c0.4-1.6,0.8-3.2,1.2-4.8
		c2.4-9.8,4.7-19,5.3-28.3c1.3-19.4-4.7-34.1-18.2-45.1l-0.2-0.2c-4.5-3.9-8.6-8.3-12.3-13c-3.7-4.5-3.8-8.6-3.3-11.3
		c0.5-2.7,2.2-6.4,7.3-9.1c2.7-1.5,5.3-3.1,8.1-4.7c3.3-2,6.8-4.1,10.4-6c5.5-2.8,5.6-3.2,3.4-8.9c-4.5-11.6-9.8-25.2-15.1-39.1
		c-0.3,0.2-0.7,0.3-1,0.5c-4.6,2.3-9.9,4.8-15.9,5.3c-9.1,0.7-18.3,0.8-27.2,0.8c-4.2,0-8.6,0.1-12.9,0.2
		c-13.9,0.4-18.5-10.4-20-13.9c-0.8-1.9-1.6-3.7-2.4-5.6c-5.3-12.4-10.7-25.3-17.4-36.8c-9.4-16.1-11.4-31.3-6.1-47.8
		c3.6-11.1,7.7-16.1,20.8-13.1c-0.1-0.9-0.3-1.9-0.5-3c-0.3-1.4-0.6-2.9-0.8-4.6c-0.1-1-0.3-2-0.5-3c-0.6-3.4-1.2-7.3-0.7-11.5
		c1.1-9.7,2.5-19.4,3.8-28.8c0.8-5.6,1.6-11.4,2.3-17.1c-2.1-0.5-3.4-0.4-4.7,0.3c-6.3,3.3-12.8,6.1-19.1,8.9l-4.5,1.9
		c-2.1,0.6-4.3,0.9-6.6,0.9c-3.4,0.2-6.9,0.5-10.3,0.7c-6,0.4-12.1,0.8-18.1,1.2c-9.6,0.7-16.7-4.8-18.6-14.3
		c-1.1-5.7-2.6-11.3-4.1-17.3c-0.7-2.6-1.3-5.2-2-7.8c-0.6-2.5-1.2-5-1.8-7.6c-1.4-5.8-2.9-11.9-4.4-17.7l-0.1-0.4
		c-0.2-0.7-0.5-1.7-0.7-2.4c-7.9-5-14.5-6.6-20.1-5.1c-6.6,1.8-13,5.2-19.7,8.7c-2.4,1.3-4.9,2.5-7.4,3.8
		c-3.7,8.3-10.7,11.3-16.2,13.7c-2,0.9-3.9,1.7-5.7,2.7l-15.6,9.2l2.9-17.8c0.8-4.6-0.1-4.8-2.6-5.5c-3.9-1.1-5.9-4.1-7.1-5.7
		c-0.2-0.2-0.3-0.5-0.5-0.7c-1.6-1.7-3.1-3.3-4.7-4.8c-0.8-0.7-1.8-1.5-2.9-2.4c-2.8-2.2-5.9-4.6-8.1-8.3c-1.4-2.3-2.6-3.2-6.7-3
		c-7.1,0.4-13,0.6-18.6,0.7c-2.4,0-8,0.1-11.8-4c-1.6-1.7-3.4-4.8-2.9-9.5c0.5-5.5,1.7-10.9,3.6-16.1l0.1-0.2c0.2-0.6,0.4-1,0.5-1.3
		c-0.1,0-0.2-0.1-0.3-0.1c-8.5-3.8-15.5-6.6-22.2-8.9c-1.4-0.5-3.1-1.1-4.5-1.5c-0.4,1.3-0.9,2.8-1.3,4.2l-0.3,0.9
		c-0.7,5.6-3.7,12.2-13.7,14.5c-0.8,0.6-1.7,3.2-1,5c4,11.1,3,22.1,2.1,31.8c-0.2,2.4-0.4,4.7-0.6,7c-0.3,4.8-3.3,9.1-8,11.5
		c-5,2.6-10.8,2.5-15.1-0.2c-1.6-1-3.3-2-5.3-3.2c-1-0.6-2.1-1.2-3.3-1.9l-6.1-3.6l2.3-6.1c-0.7-0.7-1.8-1.5-2.4-2
		c-5.8-4.8-10.5-10.5-14.2-17c-3-5.2-3.9-5-5.4-4.6c-1.6,0.4-3.1,0.8-4.7,1.2c-6.9,1.8-14.1,3.6-21.4,4.8c-4.4,0.7-8.7,0.3-12.5-0.2
		c-1.1-0.1-2.1-0.2-3.1-0.3c-7.8-0.6-15.7-1.4-23.3-2.1l-6.2-0.6c-2.5-0.1-5.1-0.4-7.6-0.9l-0.3-0.1c-1.9-0.4-3.6-1.1-5.1-1.7
		c-0.4-0.1-0.8-0.3-1.3-0.5c-1.3,0.6-2.6,1.1-3.8,1.6c-9.5,3.9-13.1,6.1-13.8,12.7c-0.7,6.1-6.1,11.3-10.8,13.6
		c-8.2,4-16-6-16.8-7.2c-1.9-2.5-8.1-5.5-16.3-6.3c-8.4-0.8-14.6,0.9-16.7,2.9c-0.2,0.1-0.2,0.2-0.3,0.4
		c-6.2,11.2-12.3,22.5-18.5,33.9c15.1,3.9,19,17.7,21,24.7c0.1,0.5,0.3,0.9,0.5,1.4c1,2.7,2.4,6.7,0.8,11l-0.1,0.3
		c-2.2,5.2-4.9,10.2-7.9,15c-2.2,3.5-5.9,4.4-7.5,4.7l-0.3,0.1c-1.7,0.5-2.8,0.8-3.4,1c0,0.7,0,1.8,0,3.6c0.1,1.3,0,2.5,0,3.7
		c0,1.3,0,2.5,0.1,3.5c0.6,6.9-2.4,12.1-8.3,14.9c3.8,7.3,0.2,13.4-1.1,15.6c-4.2,7.1-8.4,14.4-12.5,21.4c-1.9,3.4-3.9,6.8-5.8,10.1
		c-2.7,4.7-2.9,5.9-2.8,6.2c0,0.2,0.3,1.3,3.9,5.2c3.4,3.7,7,7.3,10.5,10.9c4.7,4.7,9.5,9.6,14,14.8l0.1,0.1
		c3.9,4.7,5.9,10.8,5.3,16.9l-0.1,0.8c-1.3,7.2-3.1,14.2-4.9,21.1c-1.2,4.7-2.4,9.5-3.5,14.2c-0.8,3.5-1.2,7.3-1.6,11.3
		c-0.2,2-0.4,4-0.7,6c-0.2,1.3-0.3,2.7-0.3,4.3c-0.2,4.4-0.5,9.3-3,14c-4.6,8.7-4.2,16,1.5,24.4l0.4,0.7c1.6,3,2,6.4,1.1,9.6
		c-1,3.6-2.4,8.2-4.1,12.8c-3.2,8.4-9.2,13-17.7,13.7c-0.7,0.2-2.4,1.4-3.1,2.4c-4.8,7.1-5.6,15.8-5.4,24.3
		c10.9,0.6,21.8,0.5,32.6,0c9.6-0.7,15,3.4,17,12.9c1.1,5.6,2.5,11.2,3.8,16.7c1.4,5.8,2.8,11.7,4,17.7c0.8,3.9-0.2,7.4-1,10
		c-0.2,0.7-0.4,1.4-0.5,2c-0.3,1.4-0.7,2.7-1.1,3.8c-0.1,0.4-0.3,1-0.4,1.4c0.9,2.5,2.6,7.1,3.9,8.1c12.3,6.8,14.6,17.5,16.7,26.8
		c2.8,12.1,2.3,24.8-1.7,36.7c-6,17.8-18.4,28.9-35.8,32.2c-5.2,1-12.7-1.5-15.6-6.7c-3.3-6.2-6.4-12.6-9.3-18.8
		c-1.2-2.4-2.3-4.9-3.5-7.3c-6.8,5.5-14.7,6.5-21.1,7.3l-0.8,0.1c-1.2,0.2-1.9,0.2-4.2,4.1c-4.3,7.1-9.8,15.9-16.7,23.1
		c-11.5,12.1-16.9,23.2-17.6,36.2l0,0.5c-0.5,4.6-2.3,8.9-5.3,12.4l-0.3,0.4c-0.1,0.1-0.2,0.2-0.2,0.3c0.2,0.2,0.4,0.4,0.6,0.5
		c0.5,0.4,1,0.9,1.5,1.3c5.3,4.6,13.3,11.4,11.7,23.3l1.8,2.8c3.9,6.2,7.9,12.6,12,18.6c0.4,0.3,1.3,0.7,1.9,1
		c0.4,0.2,0.9,0.5,1.3,0.7c0.1,0,0.3,0.1,0.4,0.1c1.6,0.4,4.6,1.2,6.8,4c3,3.6,6,4.7,15,1c9.6-4,18.3-2.4,23.9-0.8
		c1.3,0.3,2.5,0.7,3.7,1.1c2.1,0.6,4.1,1.2,5.9,1.6c7.8,1.5,11.9,7,11.3,15.1l-0.1,1c-0.1,0.7-0.1,1.7-0.1,2.5
		c7.1,8.5,10.3,18.1,13.5,27.4l0,0.1l5.3-2.4c11.8-5.4,24-11,36.2-16.2l0.5-0.2c4.5-1.6,9.4-1.5,13.8,0.4l0.2,0.1
		c4.1,1.9,8.1,4,12,6.1c3.8,2,7.4,3.9,11.1,5.6c20.7,9.5,35.2,24.4,43.2,44.1c1.4,3.5,2.9,6.9,4.6,10.5
		c6.3,13.9,13.5,29.6,10.4,48.1c0.3,0.4,0.7,0.9,1.2,1.4c6.2,6,14.2,8.6,25.1,8c13.4-0.7,19.4,3.1,24.9,15.5
		C485.5,976.9,486.4,977.9,486.8,978.2z M486.9,978.3L486.9,978.3C486.9,978.3,486.9,978.3,486.9,978.3z M674.9,954.6
		C674.9,954.6,674.9,954.6,674.9,954.6C674.9,954.6,674.9,954.6,674.9,954.6z M580.2,933.2L580.2,933.2L580.2,933.2z M718.7,901.1
		L718.7,901.1L718.7,901.1z M294,856C294,856,294,856,294,856C294,856,294,856,294,856z M728.8,836.9
		C728.8,837,728.8,837,728.8,836.9C728.8,837,728.8,837,728.8,836.9z M723.1,831.3C723.2,831.3,723.2,831.3,723.1,831.3
		C723.2,831.3,723.2,831.3,723.1,831.3z M283.1,828.2L283.1,828.2L283.1,828.2z M216.5,802.2C216.5,802.2,216.5,802.2,216.5,802.2
		C216.5,802.2,216.5,802.2,216.5,802.2z M778.6,789.3C778.6,789.4,778.6,789.4,778.6,789.3C778.6,789.4,778.6,789.4,778.6,789.3z
		 M778.8,788.9L778.8,788.9L778.8,788.9z M296.8,599L296.8,599L296.8,599z M296.5,597.2L296.5,597.2
		C296.5,597.3,296.5,597.3,296.5,597.2z M239.6,533.8c0.1,0,0.1,0,0.2,0C239.7,533.8,239.7,533.8,239.6,533.8z M251,507.3
		C251,507.3,251,507.3,251,507.3C251,507.3,251,507.3,251,507.3z M257.4,281.1L257.4,281.1L257.4,281.1z M257.3,279.3L257.3,279.3
		L257.3,279.3z M732.9,208.9L732.9,208.9L732.9,208.9z M732.4,208.5L732.4,208.5L732.4,208.5z M275.6,192.9L275.6,192.9L275.6,192.9
		z M482.4,160.9L482.4,160.9L482.4,160.9z M702.6,157.4L702.6,157.4L702.6,157.4z M373.6,137.4L373.6,137.4L373.6,137.4z
		 M560.1,112.7L560.1,112.7L560.1,112.7z M514.7,104.4C514.7,104.4,514.7,104.4,514.7,104.4C514.7,104.4,514.7,104.4,514.7,104.4z"
		/>
	<path class="st1" d="M414.8,323.7v440.2h89V598.3c0,0,220.9,18.4,220.9-139.6S585,323.7,414.8,323.7z M508.3,513.9V400.4
		c0,0,122.7-16.9,122.7,56.8S508.3,513.9,508.3,513.9z"/>
</g>
</svg>
